{"asset":{"version":"2.0","generator":"beict-model-generator"},"scene":0,"scenes":[{"name":"Scene","nodes":[0,1,2,3,4]}],"nodes":[{"name":"Substrate","mesh":0,"translation":[0,0,0]},{"name":"Pins","mesh":1,"translation":[0,0,0]},{"name":"Die","mesh":2,"translation":[0,0.14,0]},{"name":"HeatSpreader","mesh":3,"translation":[0,0.25,0]},{"name":"Capacitors","mesh":4,"translation":[0,0,0]}],"meshes":[{"primitives":[{"attributes":{"POSITION":0,"NORMAL":1,"TEXCOORD_0":2},"indices":3,"material":0}]},{"primitives":[{"attributes":{"POSITION":4,"NORMAL":5,"TEXCOORD_0":6},"indices":7,"material":3}]},{"primitives":[{"attributes":{"POSITION":8,"NORMAL":9,"TEXCOORD_0":10},"indices":11,"material":1}]},{"primitives":[{"attributes":{"POSITION":12,"NORMAL":13,"TEXCOORD_0":14},"indices":15,"material":2}]},{"primitives":[{"attributes":{"POSITION":16,"NORMAL":17,"TEXCOORD_0":18},"indices":19,"material":4}]}],"materials":[{"name":"Substrate","pbrMetallicRoughness":{"baseColorFactor":[0.07,0.17,0.43,1],"metallicFactor":0.5,"roughnessFactor":0.35},"doubleSided":true},{"name":"Die","pbrMetallicRoughness":{"baseColorFactor":[0.16,0.42,1,1],"metallicFactor":0.35,"roughnessFactor":0.3},"emissiveFactor":[0.02,0.05,0.18],"doubleSided":true},{"name":"HeatSpreader","pbrMetallicRoughness":{"baseColorFactor":[0.25,0.72,0.95,1],"metallicFactor":0.75,"roughnessFactor":0.22},"doubleSided":true},{"name":"Gold","pbrMetallicRoughness":{"baseColorFactor":[0.98,0.8,0.32,1],"metallicFactor":0.75,"roughnessFactor":0.32},"doubleSided":true},{"name":"Silver","pbrMetallicRoughness":{"baseColorFactor":[0.88,0.92,0.97,1],"metallicFactor":0.7,"roughnessFactor":0.3},"doubleSided":true},{"name":"Core","pbrMetallicRoughness":{"baseColorFactor":[0.13,0.33,0.9,1],"metallicFactor":0.4,"roughnessFactor":0.35},"emissiveFactor":[0.02,0.04,0.16],"doubleSided":true},{"name":"RingCyan","pbrMetallicRoughness":{"baseColorFactor":[0.4,0.88,1,1],"metallicFactor":0.6,"roughnessFactor":0.25},"doubleSided":true},{"name":"NodeLight","pbrMetallicRoughness":{"baseColorFactor":[0.6,0.78,1,1],"metallicFactor":0.3,"roughnessFactor":0.3},"emissiveFactor":[0.05,0.08,0.22],"doubleSided":true},{"name":"DiskA","pbrMetallicRoughness":{"baseColorFactor":[0.15,0.34,0.91,1],"metallicFactor":0.35,"roughnessFactor":0.4},"doubleSided":true},{"name":"DiskB","pbrMetallicRoughness":{"baseColorFactor":[0.29,0.51,0.97,1],"metallicFactor":0.35,"roughnessFactor":0.4},"doubleSided":true},{"name":"DiskC","pbrMetallicRoughness":{"baseColorFactor":[0.44,0.65,1,1],"metallicFactor":0.35,"roughnessFactor":0.4},"doubleSided":true}],"buffers":[{"byteLength":41576,"uri":"data:application/octet-stream;base64,"}],"bufferViews":[{"buffer":0,"byteOffset":0,"byteLength":288,"target":34962},{"buffer":0,"byteOffset":288,"byteLength":288,"target":34962},{"buffer":0,"byteOffset":576,"byteLength":192,"target":34962},{"buffer":0,"byteOffset":768,"byteLength":72,"target":34963},{"buffer":0,"byteOffset":840,"byteLength":9792,"target":34962},{"buffer":0,"byteOffset":10632,"byteLength":9792,"target":34962},{"buffer":0,"byteOffset":20424,"byteLength":6528,"target":34962},{"buffer":0,"byteOffset":26952,"byteLength":2448,"target":34963},{"buffer":0,"byteOffset":29400,"byteLength":288,"target":34962},{"buffer":0,"byteOffset":29688,"byteLength":288,"target":34962},{"buffer":0,"byteOffset":29976,"byteLength":192,"target":34962},{"buffer":0,"byteOffset":30168,"byteLength":72,"target":34963},{"buffer":0,"byteOffset":30240,"byteLength":288,"target":34962},{"buffer":0,"byteOffset":30528,"byteLength":288,"target":34962},{"buffer":0,"byteOffset":30816,"byteLength":192,"target":34962},{"buffer":0,"byteOffset":31008,"byteLength":72,"target":34963},{"buffer":0,"byteOffset":31080,"byteLength":3360,"target":34962},{"buffer":0,"byteOffset":34440,"byteLength":3360,"target":34962},{"buffer":0,"byteOffset":37800,"byteLength":2240,"target":34962},{"buffer":0,"byteOffset":40040,"byteLength":1536,"target":34963}],"accessors":[{"bufferView":0,"componentType":5126,"count":24,"type":"VEC3","min":[-1.100000023841858,-0.07000000029802322,-1.100000023841858],"max":[1.100000023841858,0.07000000029802322,1.100000023841858]},{"bufferView":1,"componentType":5126,"count":24,"type":"VEC3"},{"bufferView":2,"componentType":5126,"count":24,"type":"VEC2"},{"bufferView":3,"componentType":5123,"count":36,"type":"SCALAR"},{"bufferView":4,"componentType":5126,"count":816,"type":"VEC3","min":[-1.065000057220459,-0.25999999046325684,-1.065000057220459],"max":[1.065000057220459,-0.07999999821186066,1.065000057220459]},{"bufferView":5,"componentType":5126,"count":816,"type":"VEC3"},{"bufferView":6,"componentType":5126,"count":816,"type":"VEC2"},{"bufferView":7,"componentType":5123,"count":1224,"type":"SCALAR"},{"bufferView":8,"componentType":5126,"count":24,"type":"VEC3","min":[-0.574999988079071,-0.05999999865889549,-0.574999988079071],"max":[0.574999988079071,0.05999999865889549,0.574999988079071]},{"bufferView":9,"componentType":5126,"count":24,"type":"VEC3"},{"bufferView":10,"componentType":5126,"count":24,"type":"VEC2"},{"bufferView":11,"componentType":5123,"count":36,"type":"SCALAR"},{"bufferView":12,"componentType":5126,"count":24,"type":"VEC3","min":[-0.3499999940395355,-0.05000000074505806,-0.3499999940395355],"max":[0.3499999940395355,0.05000000074505806,0.3499999940395355]},{"bufferView":13,"componentType":5126,"count":24,"type":"VEC3"},{"bufferView":14,"componentType":5126,"count":24,"type":"VEC2"},{"bufferView":15,"componentType":5123,"count":36,"type":"SCALAR"},{"bufferView":16,"componentType":5126,"count":280,"type":"VEC3","min":[-0.9950000047683716,0.07999999821186066,-0.9350000023841858],"max":[0.9950000047683716,0.23999999463558197,-0.5450000166893005]},{"bufferView":17,"componentType":5126,"count":280,"type":"VEC3"},{"bufferView":18,"componentType":5126,"count":280,"type":"VEC2"},{"bufferView":19,"componentType":5123,"count":768,"type":"SCALAR"}]}