{"asset":{"version":"2.0","generator":"beict-model-generator"},"scene":0,"scenes":[{"name":"Scene","nodes":[0,1,2]}],"nodes":[{"name":"DiskTop","mesh":0,"translation":[0,0.54,0]},{"name":"DiskMid","mesh":1,"translation":[0,0,0]},{"name":"DiskBottom","mesh":2,"translation":[0,-0.54,0]}],"meshes":[{"primitives":[{"attributes":{"POSITION":0,"NORMAL":1,"TEXCOORD_0":2},"indices":3,"material":10}]},{"primitives":[{"attributes":{"POSITION":4,"NORMAL":5,"TEXCOORD_0":6},"indices":7,"material":9}]},{"primitives":[{"attributes":{"POSITION":8,"NORMAL":9,"TEXCOORD_0":10},"indices":11,"material":8}]}],"materials":[{"name":"Substrate","pbrMetallicRoughness":{"baseColorFactor":[0.07,0.17,0.43,1],"metallicFactor":0.5,"roughnessFactor":0.35},"doubleSided":true},{"name":"Die","pbrMetallicRoughness":{"baseColorFactor":[0.16,0.42,1,1],"metallicFactor":0.35,"roughnessFactor":0.3},"emissiveFactor":[0.02,0.05,0.18],"doubleSided":true},{"name":"HeatSpreader","pbrMetallicRoughness":{"baseColorFactor":[0.25,0.72,0.95,1],"metallicFactor":0.75,"roughnessFactor":0.22},"doubleSided":true},{"name":"Gold","pbrMetallicRoughness":{"baseColorFactor":[0.98,0.8,0.32,1],"metallicFactor":0.75,"roughnessFactor":0.32},"doubleSided":true},{"name":"Silver","pbrMetallicRoughness":{"baseColorFactor":[0.88,0.92,0.97,1],"metallicFactor":0.7,"roughnessFactor":0.3},"doubleSided":true},{"name":"Core","pbrMetallicRoughness":{"baseColorFactor":[0.13,0.33,0.9,1],"metallicFactor":0.4,"roughnessFactor":0.35},"emissiveFactor":[0.02,0.04,0.16],"doubleSided":true},{"name":"RingCyan","pbrMetallicRoughness":{"baseColorFactor":[0.4,0.88,1,1],"metallicFactor":0.6,"roughnessFactor":0.25},"doubleSided":true},{"name":"NodeLight","pbrMetallicRoughness":{"baseColorFactor":[0.6,0.78,1,1],"metallicFactor":0.3,"roughnessFactor":0.3},"emissiveFactor":[0.05,0.08,0.22],"doubleSided":true},{"name":"DiskA","pbrMetallicRoughness":{"baseColorFactor":[0.15,0.34,0.91,1],"metallicFactor":0.35,"roughnessFactor":0.4},"doubleSided":true},{"name":"DiskB","pbrMetallicRoughness":{"baseColorFactor":[0.29,0.51,0.97,1],"metallicFactor":0.35,"roughnessFactor":0.4},"doubleSided":true},{"name":"DiskC","pbrMetallicRoughness":{"baseColorFactor":[0.44,0.65,1,1],"metallicFactor":0.35,"roughnessFactor":0.4},"doubleSided":true}],"buffers":[{"byteLength":18816,"uri":"data:application/octet-stream;base64,"}],"bufferViews":[{"buffer":0,"byteOffset":0,"byteLength":1992,"target":34962},{"buffer":0,"byteOffset":1992,"byteLength":1992,"target":34962},{"buffer":0,"byteOffset":3984,"byteLength":1328,"target":34962},{"buffer":0,"byteOffset":5312,"byteLength":960,"target":34963},{"buffer":0,"byteOffset":6272,"byteLength":1992,"target":34962},{"buffer":0,"byteOffset":8264,"byteLength":1992,"target":34962},{"buffer":0,"byteOffset":10256,"byteLength":1328,"target":34962},{"buffer":0,"byteOffset":11584,"byteLength":960,"target":34963},{"buffer":0,"byteOffset":12544,"byteLength":1992,"target":34962},{"buffer":0,"byteOffset":14536,"byteLength":1992,"target":34962},{"buffer":0,"byteOffset":16528,"byteLength":1328,"target":34962},{"buffer":0,"byteOffset":17856,"byteLength":960,"target":34963}],"accessors":[{"bufferView":0,"componentType":5126,"count":166,"type":"VEC3","min":[-0.949999988079071,-0.1899999976158142,-0.949999988079071],"max":[0.949999988079071,0.1899999976158142,0.949999988079071]},{"bufferView":1,"componentType":5126,"count":166,"type":"VEC3"},{"bufferView":2,"componentType":5126,"count":166,"type":"VEC2"},{"bufferView":3,"componentType":5123,"count":480,"type":"SCALAR"},{"bufferView":4,"componentType":5126,"count":166,"type":"VEC3","min":[-0.949999988079071,-0.1899999976158142,-0.949999988079071],"max":[0.949999988079071,0.1899999976158142,0.949999988079071]},{"bufferView":5,"componentType":5126,"count":166,"type":"VEC3"},{"bufferView":6,"componentType":5126,"count":166,"type":"VEC2"},{"bufferView":7,"componentType":5123,"count":480,"type":"SCALAR"},{"bufferView":8,"componentType":5126,"count":166,"type":"VEC3","min":[-0.949999988079071,-0.1899999976158142,-0.949999988079071],"max":[0.949999988079071,0.1899999976158142,0.949999988079071]},{"bufferView":9,"componentType":5126,"count":166,"type":"VEC3"},{"bufferView":10,"componentType":5126,"count":166,"type":"VEC2"},{"bufferView":11,"componentType":5123,"count":480,"type":"SCALAR"}]}