{"asset":{"version":"2.0","generator":"beict-model-generator"},"scene":0,"scenes":[{"name":"Scene","nodes":[0,1,2,3]}],"nodes":[{"name":"Core","mesh":0,"translation":[0,0,0]},{"name":"Ring1","mesh":1,"translation":[0,0,0],"children":[4,5,6,7]},{"name":"Ring2","mesh":2,"translation":[0,0,0],"rotation":[0.5680647467311557,0,0,0.8229838658936565],"children":[8,9]},{"name":"Ring3","mesh":3,"translation":[0,0,0],"rotation":[0,0,0.654860733945285,0.7557495743542584],"children":[10,11]},{"name":"Node1","mesh":4,"translation":[1.42,0,0]},{"name":"Node2","mesh":5,"translation":[8.694992273946207e-17,0,1.42]},{"name":"Node3","mesh":6,"translation":[-1.42,0,1.7389984547892414e-16]},{"name":"Node4","mesh":7,"translation":[-2.608497682183862e-16,0,-1.42]},{"name":"Node5","mesh":8,"translation":[1.0040916292848976,0,1.0040916292848974]},{"name":"Node6","mesh":9,"translation":[-1.0040916292848976,0,-1.0040916292848974]},{"name":"Node7","mesh":10,"translation":[0.7100000000000001,0,1.2297560733739028]},{"name":"Node8","mesh":11,"translation":[-0.7100000000000006,0,-1.2297560733739026]}],"meshes":[{"primitives":[{"attributes":{"POSITION":0,"NORMAL":1,"TEXCOORD_0":2},"indices":3,"material":5}]},{"primitives":[{"attributes":{"POSITION":4,"NORMAL":5,"TEXCOORD_0":6},"indices":7,"material":6}]},{"primitives":[{"attributes":{"POSITION":8,"NORMAL":9,"TEXCOORD_0":10},"indices":11,"material":6}]},{"primitives":[{"attributes":{"POSITION":12,"NORMAL":13,"TEXCOORD_0":14},"indices":15,"material":6}]},{"primitives":[{"attributes":{"POSITION":16,"NORMAL":17,"TEXCOORD_0":18},"indices":19,"material":7}]},{"primitives":[{"attributes":{"POSITION":20,"NORMAL":21,"TEXCOORD_0":22},"indices":23,"material":7}]},{"primitives":[{"attributes":{"POSITION":24,"NORMAL":25,"TEXCOORD_0":26},"indices":27,"material":7}]},{"primitives":[{"attributes":{"POSITION":28,"NORMAL":29,"TEXCOORD_0":30},"indices":31,"material":7}]},{"primitives":[{"attributes":{"POSITION":32,"NORMAL":33,"TEXCOORD_0":34},"indices":35,"material":7}]},{"primitives":[{"attributes":{"POSITION":36,"NORMAL":37,"TEXCOORD_0":38},"indices":39,"material":7}]},{"primitives":[{"attributes":{"POSITION":40,"NORMAL":41,"TEXCOORD_0":42},"indices":43,"material":7}]},{"primitives":[{"attributes":{"POSITION":44,"NORMAL":45,"TEXCOORD_0":46},"indices":47,"material":7}]}],"materials":[{"name":"Substrate","pbrMetallicRoughness":{"baseColorFactor":[0.07,0.17,0.43,1],"metallicFactor":0.5,"roughnessFactor":0.35},"doubleSided":true},{"name":"Die","pbrMetallicRoughness":{"baseColorFactor":[0.16,0.42,1,1],"metallicFactor":0.35,"roughnessFactor":0.3},"emissiveFactor":[0.02,0.05,0.18],"doubleSided":true},{"name":"HeatSpreader","pbrMetallicRoughness":{"baseColorFactor":[0.25,0.72,0.95,1],"metallicFactor":0.75,"roughnessFactor":0.22},"doubleSided":true},{"name":"Gold","pbrMetallicRoughness":{"baseColorFactor":[0.98,0.8,0.32,1],"metallicFactor":0.75,"roughnessFactor":0.32},"doubleSided":true},{"name":"Silver","pbrMetallicRoughness":{"baseColorFactor":[0.88,0.92,0.97,1],"metallicFactor":0.7,"roughnessFactor":0.3},"doubleSided":true},{"name":"Core","pbrMetallicRoughness":{"baseColorFactor":[0.13,0.33,0.9,1],"metallicFactor":0.4,"roughnessFactor":0.35},"emissiveFactor":[0.02,0.04,0.16],"doubleSided":true},{"name":"RingCyan","pbrMetallicRoughness":{"baseColorFactor":[0.4,0.88,1,1],"metallicFactor":0.6,"roughnessFactor":0.25},"doubleSided":true},{"name":"NodeLight","pbrMetallicRoughness":{"baseColorFactor":[0.6,0.78,1,1],"metallicFactor":0.3,"roughnessFactor":0.3},"emissiveFactor":[0.05,0.08,0.22],"doubleSided":true},{"name":"DiskA","pbrMetallicRoughness":{"baseColorFactor":[0.15,0.34,0.91,1],"metallicFactor":0.35,"roughnessFactor":0.4},"doubleSided":true},{"name":"DiskB","pbrMetallicRoughness":{"baseColorFactor":[0.29,0.51,0.97,1],"metallicFactor":0.35,"roughnessFactor":0.4},"doubleSided":true},{"name":"DiskC","pbrMetallicRoughness":{"baseColorFactor":[0.44,0.65,1,1],"metallicFactor":0.35,"roughnessFactor":0.4},"doubleSided":true}],"buffers":[{"byteLength":184896,"uri":"data:application/octet-stream;base64,"}],"bufferViews":[{"buffer":0,"byteOffset":0,"byteLength":7308,"target":34962},{"buffer":0,"byteOffset":7308,"byteLength":7308,"target":34962},{"buffer":0,"byteOffset":14616,"byteLength":4872,"target":34962},{"buffer":0,"byteOffset":19488,"byteLength":6720,"target":34963},{"buffer":0,"byteOffset":26208,"byteLength":9636,"target":34962},{"buffer":0,"byteOffset":35844,"byteLength":9636,"target":34962},{"buffer":0,"byteOffset":45480,"byteLength":6424,"target":34962},{"buffer":0,"byteOffset":51904,"byteLength":8640,"target":34963},{"buffer":0,"byteOffset":60544,"byteLength":9636,"target":34962},{"buffer":0,"byteOffset":70180,"byteLength":9636,"target":34962},{"buffer":0,"byteOffset":79816,"byteLength":6424,"target":34962},{"buffer":0,"byteOffset":86240,"byteLength":8640,"target":34963},{"buffer":0,"byteOffset":94880,"byteLength":9636,"target":34962},{"buffer":0,"byteOffset":104516,"byteLength":9636,"target":34962},{"buffer":0,"byteOffset":114152,"byteLength":6424,"target":34962},{"buffer":0,"byteOffset":120576,"byteLength":8640,"target":34963},{"buffer":0,"byteOffset":129216,"byteLength":1980,"target":34962},{"buffer":0,"byteOffset":131196,"byteLength":1980,"target":34962},{"buffer":0,"byteOffset":133176,"byteLength":1320,"target":34962},{"buffer":0,"byteOffset":134496,"byteLength":1680,"target":34963},{"buffer":0,"byteOffset":136176,"byteLength":1980,"target":34962},{"buffer":0,"byteOffset":138156,"byteLength":1980,"target":34962},{"buffer":0,"byteOffset":140136,"byteLength":1320,"target":34962},{"buffer":0,"byteOffset":141456,"byteLength":1680,"target":34963},{"buffer":0,"byteOffset":143136,"byteLength":1980,"target":34962},{"buffer":0,"byteOffset":145116,"byteLength":1980,"target":34962},{"buffer":0,"byteOffset":147096,"byteLength":1320,"target":34962},{"buffer":0,"byteOffset":148416,"byteLength":1680,"target":34963},{"buffer":0,"byteOffset":150096,"byteLength":1980,"target":34962},{"buffer":0,"byteOffset":152076,"byteLength":1980,"target":34962},{"buffer":0,"byteOffset":154056,"byteLength":1320,"target":34962},{"buffer":0,"byteOffset":155376,"byteLength":1680,"target":34963},{"buffer":0,"byteOffset":157056,"byteLength":1980,"target":34962},{"buffer":0,"byteOffset":159036,"byteLength":1980,"target":34962},{"buffer":0,"byteOffset":161016,"byteLength":1320,"target":34962},{"buffer":0,"byteOffset":162336,"byteLength":1680,"target":34963},{"buffer":0,"byteOffset":164016,"byteLength":1980,"target":34962},{"buffer":0,"byteOffset":165996,"byteLength":1980,"target":34962},{"buffer":0,"byteOffset":167976,"byteLength":1320,"target":34962},{"buffer":0,"byteOffset":169296,"byteLength":1680,"target":34963},{"buffer":0,"byteOffset":170976,"byteLength":1980,"target":34962},{"buffer":0,"byteOffset":172956,"byteLength":1980,"target":34962},{"buffer":0,"byteOffset":174936,"byteLength":1320,"target":34962},{"buffer":0,"byteOffset":176256,"byteLength":1680,"target":34963},{"buffer":0,"byteOffset":177936,"byteLength":1980,"target":34962},{"buffer":0,"byteOffset":179916,"byteLength":1980,"target":34962},{"buffer":0,"byteOffset":181896,"byteLength":1320,"target":34962},{"buffer":0,"byteOffset":183216,"byteLength":1680,"target":34963}],"accessors":[{"bufferView":0,"componentType":5126,"count":609,"type":"VEC3","min":[-1,-1,-1],"max":[1,1,1]},{"bufferView":1,"componentType":5126,"count":609,"type":"VEC3"},{"bufferView":2,"componentType":5126,"count":609,"type":"VEC2"},{"bufferView":3,"componentType":5123,"count":3360,"type":"SCALAR"},{"bufferView":4,"componentType":5126,"count":803,"type":"VEC3","min":[-1.444000005722046,-0.02282535657286644,-1.444000005722046],"max":[1.444000005722046,0.02282535657286644,1.444000005722046]},{"bufferView":5,"componentType":5126,"count":803,"type":"VEC3"},{"bufferView":6,"componentType":5126,"count":803,"type":"VEC2"},{"bufferView":7,"componentType":5123,"count":4320,"type":"SCALAR"},{"bufferView":8,"componentType":5126,"count":803,"type":"VEC3","min":[-1.444000005722046,-0.02282535657286644,-1.444000005722046],"max":[1.444000005722046,0.02282535657286644,1.444000005722046]},{"bufferView":9,"componentType":5126,"count":803,"type":"VEC3"},{"bufferView":10,"componentType":5126,"count":803,"type":"VEC2"},{"bufferView":11,"componentType":5123,"count":4320,"type":"SCALAR"},{"bufferView":12,"componentType":5126,"count":803,"type":"VEC3","min":[-1.444000005722046,-0.02282535657286644,-1.444000005722046],"max":[1.444000005722046,0.02282535657286644,1.444000005722046]},{"bufferView":13,"componentType":5126,"count":803,"type":"VEC3"},{"bufferView":14,"componentType":5126,"count":803,"type":"VEC2"},{"bufferView":15,"componentType":5123,"count":4320,"type":"SCALAR"},{"bufferView":16,"componentType":5126,"count":165,"type":"VEC3","min":[-0.08286887407302856,-0.08500000089406967,-0.08500000089406967],"max":[0.08286887407302856,0.08500000089406967,0.08500000089406967]},{"bufferView":17,"componentType":5126,"count":165,"type":"VEC3"},{"bufferView":18,"componentType":5126,"count":165,"type":"VEC2"},{"bufferView":19,"componentType":5123,"count":840,"type":"SCALAR"},{"bufferView":20,"componentType":5126,"count":165,"type":"VEC3","min":[-0.08286887407302856,-0.08500000089406967,-0.08500000089406967],"max":[0.08286887407302856,0.08500000089406967,0.08500000089406967]},{"bufferView":21,"componentType":5126,"count":165,"type":"VEC3"},{"bufferView":22,"componentType":5126,"count":165,"type":"VEC2"},{"bufferView":23,"componentType":5123,"count":840,"type":"SCALAR"},{"bufferView":24,"componentType":5126,"count":165,"type":"VEC3","min":[-0.08286887407302856,-0.08500000089406967,-0.08500000089406967],"max":[0.08286887407302856,0.08500000089406967,0.08500000089406967]},{"bufferView":25,"componentType":5126,"count":165,"type":"VEC3"},{"bufferView":26,"componentType":5126,"count":165,"type":"VEC2"},{"bufferView":27,"componentType":5123,"count":840,"type":"SCALAR"},{"bufferView":28,"componentType":5126,"count":165,"type":"VEC3","min":[-0.08286887407302856,-0.08500000089406967,-0.08500000089406967],"max":[0.08286887407302856,0.08500000089406967,0.08500000089406967]},{"bufferView":29,"componentType":5126,"count":165,"type":"VEC3"},{"bufferView":30,"componentType":5126,"count":165,"type":"VEC2"},{"bufferView":31,"componentType":5123,"count":840,"type":"SCALAR"},{"bufferView":32,"componentType":5126,"count":165,"type":"VEC3","min":[-0.08286887407302856,-0.08500000089406967,-0.08500000089406967],"max":[0.08286887407302856,0.08500000089406967,0.08500000089406967]},{"bufferView":33,"componentType":5126,"count":165,"type":"VEC3"},{"bufferView":34,"componentType":5126,"count":165,"type":"VEC2"},{"bufferView":35,"componentType":5123,"count":840,"type":"SCALAR"},{"bufferView":36,"componentType":5126,"count":165,"type":"VEC3","min":[-0.08286887407302856,-0.08500000089406967,-0.08500000089406967],"max":[0.08286887407302856,0.08500000089406967,0.08500000089406967]},{"bufferView":37,"componentType":5126,"count":165,"type":"VEC3"},{"bufferView":38,"componentType":5126,"count":165,"type":"VEC2"},{"bufferView":39,"componentType":5123,"count":840,"type":"SCALAR"},{"bufferView":40,"componentType":5126,"count":165,"type":"VEC3","min":[-0.08286887407302856,-0.08500000089406967,-0.08500000089406967],"max":[0.08286887407302856,0.08500000089406967,0.08500000089406967]},{"bufferView":41,"componentType":5126,"count":165,"type":"VEC3"},{"bufferView":42,"componentType":5126,"count":165,"type":"VEC2"},{"bufferView":43,"componentType":5123,"count":840,"type":"SCALAR"},{"bufferView":44,"componentType":5126,"count":165,"type":"VEC3","min":[-0.08286887407302856,-0.08500000089406967,-0.08500000089406967],"max":[0.08286887407302856,0.08500000089406967,0.08500000089406967]},{"bufferView":45,"componentType":5126,"count":165,"type":"VEC3"},{"bufferView":46,"componentType":5126,"count":165,"type":"VEC2"},{"bufferView":47,"componentType":5123,"count":840,"type":"SCALAR"}]}